General

Complete name                    : 

The.Lives.of.Others[2006]720p.XviD.AC3.6Chn.Cody'sBRrip.avi

Format                           : AVI
Format/Info                      : Audio Video Interleave
Format profile                   : OpenDML
File size                        : 1.40 GiB
Duration                         : 2h 17mn
Overall bit rate                 : 1 454 Kbps
Writing application              : AVI-Mux GUI 1.17.8, Aug 30 2008  12:36:58

Video
Format                           : MPEG-4 Visual
Format profile                   : Streaming Video@L1
Format settings, BVOP            : Yes
Format settings, QPel            : Yes
Format settings, GMC             : 3 warppoints
Format settings, Matrix          : Default
Codec ID                         : XVID
Codec ID/Hint                    : XviD
Duration                         : 2h 17mn
Bit rate                         : 1 065 Kbps
Width                            : 1 280 pixels
Height                           : 536 pixels
Display aspect ratio             : 2.35
Frame rate                       : 24.000 fps
Resolution                       : 24 bits
Colorimetry                      : 4:2:0
Scan type                        : Progressive
Bits/(Pixel*Frame)               : 0.065
Stream size                      : 1.02 GiB (73%)
Writing library                  : XviD 1.2.0.dev47 (UTC 2006-11-01)

Audio
Format                           : AC-3
Format/Info                      : Audio Coding 3
Codec ID                         : 2000
Bit rate mode                    : Constant
Bit rate                         : 384 Kbps
Channel(s)                       : 6 channels
Channel positions                : Front: L C R, Rear: L R, LFE
Sampling rate                    : 48.0 KHz
Stream size                      : 378 MiB (26%)
Alignment                        : Aligned on interleaves
Interleave, duration             : 64 ms (1.54 video frames)
Interleave, preload duration     : 192 ms


Subtitles included: ENGLISH, ROMANIAN


DON'T FORGET TO SEED !!!


HIT AND RUN IS NOT AN OPTION BECAUSE THIS IS ... A TORRENT !!!